Coordinates
version=1
nRows=46
nColumns=14
inDegrees=yes

Units are S.I. units (second, meters, Newtons, ...)
Angles are in degrees.

endheader
time	pelvis_tilt	pelvis_list	pelvis_rotation	pelvis_tx	pelvis_ty	pelvis_tz	hip_flexion_r	hip_adduction_r	hip_rotation_r	knee_angle_r	ankle_angle_r	subtalar_angle_r	mtp_angle_r
      0.00000000	    -14.22868410	     -2.04394590	      9.12307033	     -0.64464661	      0.83651945	      0.09898191	     41.93225528	      1.83971417	    -11.81959849	     -9.73309900	     -2.77242168	      0.01799255	      0.00000000
      0.01000000	    -13.98275978	     -2.03391421	      8.90050001	     -0.62709998	      0.83699082	      0.09980917	     41.38907496	      2.17804745	    -11.07630452	    -10.89417884	     -4.89972370	     -0.26178730	      0.00000000
      0.02000000	    -13.83543947	     -2.14330217	      8.51204561	     -0.60961898	      0.83784792	      0.10103216	     40.90256665	      2.71408518	    -10.24630683	    -11.83819276	     -7.35849356	     -0.84047805	      0.00000000
      0.03000000	    -13.69651476	     -2.33584223	      7.97358011	     -0.59226006	      0.83906678	      0.10277385	     40.51492856	      3.39565493	     -9.82397748	    -13.32426514	     -7.85006173	     -0.12918383	      0.00000000
      0.04000000	    -13.51308951	     -2.61362909	      7.37502300	     -0.57512905	      0.84033792	      0.10469432	     40.29442922	      4.15966655	     -9.30080506	    -15.36066042	     -7.74584569	      0.26594731	      0.00000000
      0.05000000	    -13.23127932	     -3.02814031	      6.73858463	     -0.55823853	      0.84171350	      0.10644113	     40.08886394	      5.03407147	     -8.84332639	    -17.65743183	     -7.24757146	      0.00125198	      0.00000000
      0.06000000	    -12.86157469	     -3.47782816	      6.09075360	     -0.54186220	      0.84300233	      0.10798472	     39.82474598	      5.88787781	     -8.72142714	    -20.08348588	     -5.79385372	      0.31657268	      0.00000000
      0.07000000	    -12.47608040	     -3.92464519	      5.33528443	     -0.52605471	      0.84418808	      0.10961266	     39.27997144	      6.97248638	     -7.95777937	    -21.86715890	     -4.75023328	     -0.12932419	      0.00000000
      0.08000000	    -12.13156824	     -4.33281426	      4.45534313	     -0.51061164	      0.84532543	      0.11103508	     38.59482435	      8.00250806	     -7.54791883	    -23.35723140	     -3.17454860	      0.09412586	      0.00000000
      0.09000000	    -11.93011604	     -4.84929219	      3.60691645	     -0.49594115	      0.84611824	      0.11235020	     37.83471620	      9.04744229	     -7.42750151	    -24.32188274	     -1.73074396	      0.41273774	      0.00000000
      0.10000000	    -11.80971971	     -5.36023237	      2.72404677	     -0.48170188	      0.84691272	      0.11374977	     36.84867867	     10.13128916	     -7.21513457	    -24.66625040	     -0.26666513	      0.73383519	      0.00000000
      0.11000000	    -11.75966756	     -5.82654291	      1.89113214	     -0.46776108	      0.84786402	      0.11521602	     35.75981475	     11.09977225	     -7.20866172	    -24.68905009	      1.17218665	      1.37012786	      0.00000000
      0.12000000	    -11.83220984	     -6.19986658	      1.14464454	     -0.45410348	      0.84898191	      0.11683075	     34.68795919	     11.90997147	     -7.30038118	    -24.49685665	      2.55359034	      2.15245588	      0.00000000
      0.13000000	    -12.09871955	     -6.40730705	      0.51570962	     -0.44074245	      0.85030208	      0.11861782	     33.68798670	     12.55511893	     -7.19263144	    -24.03868849	      3.62177174	      2.62466206	      0.00000000
      0.14000000	    -12.54111685	     -6.40632167	      0.04004549	     -0.42756502	      0.85189785	      0.12054040	     32.79734420	     12.97636281	     -6.88695894	    -23.43651970	      4.43006723	      2.80905531	      0.00000000
      0.15000000	    -13.06735918	     -6.20309067	     -0.30584039	     -0.41436132	      0.85379758	      0.12244519	     31.93430905	     13.19483522	     -6.32081296	    -22.74118804	      4.98000977	      2.62138204	      0.00000000
      0.16000000	    -13.56031161	     -5.85595802	     -0.53678987	     -0.40108326	      0.85596665	      0.12417578	     31.00361780	     13.22241998	     -5.67107613	    -21.99510624	      5.39641633	      2.30534967	      0.00000000
      0.17000000	    -13.88809026	     -5.45289446	     -0.69955263	     -0.38771551	      0.85848363	      0.12572214	     29.82378025	     13.14481437	     -5.04223963	    -21.11967624	      5.71925974	      2.03708761	      0.00000000
      0.18000000	    -14.06298124	     -4.95824270	     -0.80833354	     -0.37436021	      0.86122069	      0.12689476	     28.46536998	     12.89033223	     -4.50069170	    -20.23118534	      6.09970789	      2.02175090	      0.00000000
      0.19000000	    -14.12146618	     -4.35771980	     -0.88411221	     -0.36093345	      0.86406931	      0.12770752	     26.94317466	     12.45509524	     -4.02047506	    -19.23863686	      6.55487382	      2.14844606	      0.00000000
      0.20000000	    -14.11397182	     -3.73680158	     -0.95086710	     -0.34744057	      0.86690809	      0.12822734	     25.26275819	     11.96658289	     -3.45509376	    -18.04157243	      6.91179927	      2.14863926	      0.00000000
      0.21000000	    -14.06371232	     -3.17108615	     -1.00005849	     -0.33396743	      0.86961840	      0.12843203	     23.51367254	     11.50530731	     -2.86151656	    -16.76065665	      7.08859538	      1.95720397	      0.00000000
      0.22000000	    -14.00877769	     -2.70315876	     -1.04046272	     -0.32049850	      0.87207682	      0.12834266	     21.76561846	     11.12509640	     -2.30035761	    -15.47606508	      7.10081017	      1.56878444	      0.00000000
      0.23000000	    -13.98685565	     -2.31470840	     -1.07618829	     -0.30707134	      0.87414034	      0.12802543	     20.04150298	     10.81976032	     -1.58194134	    -14.19067863	      6.76891388	      0.88181218	      0.00000000
      0.24000000	    -14.05478916	     -1.98836735	     -1.10801876	     -0.29372696	      0.87566979	      0.12751347	     18.43215960	     10.58919811	     -0.58747326	    -12.89529900	      6.22884218	     -0.35652674	      0.00000000
      0.25000000	    -14.19018796	     -1.72789280	     -1.16524792	     -0.28046764	      0.87666868	      0.12694156	     16.96513718	     10.41341370	      0.45530731	    -11.71773298	      5.67261004	     -1.53273844	      0.00000000
      0.26000000	    -14.34997699	     -1.51832812	     -1.24335748	     -0.26725676	      0.87725965	      0.12629619	     15.63594641	     10.23070616	      1.06970123	    -10.69573106	      5.48737587	     -2.32530638	      0.00000000
      0.27000000	    -14.50872146	     -1.39327163	     -1.32442298	     -0.25404443	      0.87748959	      0.12562472	     14.38974839	     10.13842100	      1.61948748	     -9.80491792	      5.13381095	     -3.29794581	      0.00000000
      0.28000000	    -14.64829599	     -1.27186997	     -1.41971455	     -0.24082355	      0.87733266	      0.12488717	     13.17319871	      9.99930161	      1.85355781	     -9.00670255	      5.19431045	     -3.66515728	      0.00000000
      0.29000000	    -14.74842063	     -1.16380204	     -1.55189245	     -0.22745494	      0.87680556	      0.12417513	     11.93963108	      9.86040383	      1.88972495	     -8.27758226	      5.51570784	     -3.71858834	      0.00000000
      0.30000000	    -14.81809055	     -1.06014423	     -1.71720667	     -0.21394127	      0.87589189	      0.12354484	     10.67642615	      9.72521235	      1.86629141	     -7.58705095	      5.93415207	     -3.67846856	      0.00000000
      0.31000000	    -14.80347133	     -0.97015147	     -1.89638681	     -0.20021071	      0.87468851	      0.12292038	      9.33035324	      9.60635048	      1.90585177	     -6.95505074	      6.29896508	     -3.79107582	      0.00000000
      0.32000000	    -14.69227100	     -0.91222717	     -2.12254615	     -0.18622938	      0.87323405	      0.12230632	      7.92260339	      9.52793246	      1.87161386	     -6.43707808	      6.71753752	     -3.87319145	      0.00000000
      0.33000000	    -14.56569142	     -0.82245219	     -2.48462027	     -0.17223586	      0.87146884	      0.12192698	      6.59098872	      9.45037537	      1.84075431	     -6.11520754	      7.23025605	     -3.96192538	      0.00000000
      0.34000000	    -14.41197135	     -0.79288453	     -2.89727981	     -0.15810893	      0.86950073	      0.12160374	      5.27185433	      9.42899248	      1.97436571	     -5.91797017	      7.68365972	     -4.17037683	      0.00000000
      0.35000000	    -14.27947612	     -0.78725868	     -3.38757858	     -0.14394373	      0.86732187	      0.12143507	      4.00062854	      9.45270753	      2.54779213	     -5.83116037	      7.83482958	     -4.82505297	      0.00000000
      0.36000000	    -14.19982519	     -0.80953002	     -3.95045670	     -0.12960856	      0.86495165	      0.12138388	      2.81035001	      9.48448268	      3.27314935	     -5.84734164	      7.92401668	     -5.45982439	      0.00000000
      0.37000000	    -14.19100184	     -0.85827906	     -4.54604320	     -0.11514064	      0.86245669	      0.12119127	      1.73633919	      9.47988554	      3.99967592	     -5.96493219	      8.09117322	     -5.77461363	      0.00000000
      0.38000000	    -14.25419300	     -0.87550760	     -5.20728632	     -0.10030214	      0.85976372	      0.12103408	      0.83876552	      9.38353346	      4.11538060	     -6.35170023	      8.39790518	     -4.55818625	      0.00000000
      0.39000000	    -14.37220544	     -0.84115713	     -5.86472758	     -0.08529884	      0.85704318	      0.12087910	      0.06599924	      9.18590814	      4.01871084	     -6.85012550	      8.63905519	     -2.82119200	      0.00000000
      0.40000000	    -14.56567594	     -0.89565496	     -6.44617456	     -0.07021585	      0.85463397	      0.12040397	     -0.72086896	      9.05609551	      5.17006934	     -7.07025753	      9.00822960	     -3.68194432	      0.00000000
      0.41000000	    -14.79865004	     -0.90721237	     -6.95960141	     -0.05499294	      0.85229352	      0.11964715	     -1.27025656	      8.80470693	      5.27662908	     -7.65048890	      9.58144539	     -2.54483258	      0.00000000
      0.42000000	    -15.03791252	     -0.87849075	     -7.44221015	     -0.03967168	      0.85006542	      0.11882949	     -1.68966829	      8.50945257	      5.18704142	     -8.40530396	      9.97627475	     -1.12324066	      0.00000000
      0.43000000	    -15.22648090	     -0.79860269	     -7.85271083	     -0.02412899	      0.84790059	      0.11790815	     -2.08887672	      8.12885062	      5.18299986	     -9.34432243	     10.28827562	     -0.10357954	      0.00000000
      0.44000000	    -15.25985845	     -0.80106772	     -8.09447932	     -0.00822701	      0.84603905	      0.11669022	     -2.58386715	      7.82793439	      5.06235479	    -10.38059941	     10.01206384	      0.32366364	      0.00000000
      0.45000000	    -15.22455568	     -0.75160846	     -8.22947818	      0.00793361	      0.84429657	      0.11537483	     -3.01473858	      7.42937002	      4.63064041	    -11.68281844	     10.01720651	      2.06626290	      0.00000000
